<?xml version="1.0" encoding="utf-8"?>
<!-- Generator: Adobe Illustrator 16.0.0, SVG Export Plug-In . SVG Version: 6.00 Build 0)  -->
<!DOCTYPE svg PUBLIC "-//W3C//DTD SVG 1.1//EN" "http://www.w3.org/Graphics/SVG/1.1/DTD/svg11.dtd">
<svg version="1.1" id="圖層_1" xmlns="http://www.w3.org/2000/svg" xmlns:xlink="http://www.w3.org/1999/xlink" x="0px" y="0px"
	 width="295.477px" height="260.819px" viewBox="0 0 295.477 260.819" enable-background="new 0 0 295.477 260.819"
	 xml:space="preserve">
<g>
	<g>
		<g>
			<path fill="#0C7394" d="M149.906,66.549c0,20.068-5.269,36.322-15.8,48.762c-11.279,13.186-26.828,19.777-46.645,19.777
				c-3.318,0-8.315-0.186-14.99-0.559c-6.676-0.375-11.673-0.561-14.989-0.561c-3.566,0-5.348,1.535-5.348,4.602
				c0,3.814,0.374,9.498,1.119,17.043c0.746,7.547,1.12,13.184,1.12,16.918c0,1.908-0.871,2.859-2.612,2.859
				c-5.059,0-12.647-0.146-22.764-0.436c-10.118-0.291-17.706-0.434-22.763-0.434c-2.407,0-3.607-1.203-3.607-3.609
				c0-9.205,0.144-23.031,0.435-41.484c0.29-18.449,0.435-32.277,0.435-41.484c0-26.039-1.119-53.404-3.358-82.098l-0.125-1.74
				c-0.167-1.576,1.077-2.529,3.731-2.861C10.215,0.418,24.477,0,46.537,0c13.018,0,25.5,0.168,37.441,0.498
				c19.653,0.58,35.494,6.76,47.517,18.533C143.767,31.141,149.906,46.979,149.906,66.549z M100.274,68.539
				c0-19.32-9.414-28.982-28.238-28.982c-13.269,0-20.234,0.746-20.897,2.24c-0.581,1.078-0.871,10.654-0.871,28.732
				c0,2.572,0.104,6.365,0.312,11.381c0.206,5.02,0.311,8.814,0.311,11.383c0,1.66,7.463,2.488,22.39,2.488
				C91.273,95.781,100.274,86.699,100.274,68.539z"/>
		</g>
		<g>
			<g>
				<path fill="#4DAABA" d="M128.702,130.166l4.567,8.529c0,0,15.177,32.422,15.177,34.58c0,0.582-0.83,0.996-2.487,1.246
					c-3.153,0.496-11.074,0.744-23.761,0.744c-10.864,0-18.246-0.248-22.142-0.744c-1.823-0.25-2.861-0.457-3.11-0.623
					c-0.5-0.248-1.079-1.078-1.741-2.49c-1.243-3.232-5.473-14.428-5.473-14.428l-5.666-14.316c0,0,13.093,0.477,24.876-2.381
					C120.726,137.43,128.702,130.166,128.702,130.166z"/>
			</g>
		</g>
	</g>
	<g>
		<path fill="#999999" d="M34.45,230c0,0.135-0.19,0.229-0.57,0.285c-0.722,0.115-2.534,0.172-5.439,0.172
			c-2.488,0-4.178-0.057-5.07-0.172c-0.418-0.057-0.655-0.104-0.712-0.141c-0.114-0.057-0.247-0.248-0.398-0.57
			c-0.285-0.74-0.703-1.842-1.253-3.303c-0.74-1.898-1.899-4.701-3.475-8.402c-0.342-0.742-1.13-1.15-2.364-1.225
			c0.57,0.037-0.408,0.057-2.933,0.057c-0.285,0-0.427,0.484-0.427,1.451c0,1.291,0.118,3.219,0.356,5.783
			c0.237,2.563,0.355,4.49,0.355,5.781c0,0.322-0.085,0.512-0.255,0.568c-0.266,0.02-0.532,0.039-0.798,0.059
			c-1.121,0.074-2.868,0.113-5.241,0.113c-2.715,0-4.348-0.057-4.898-0.172c-0.551-0.113-0.826-0.408-0.826-0.883
			c0-2.088,0.099-5.24,0.299-9.455C1,215.732,1.1,212.57,1.1,210.463c0-8.031-0.181-14.297-0.541-18.797l-0.028-0.398
			c-0.02-0.322,0.279-0.541,0.896-0.654c0.617-0.115,3.518-0.229,8.701-0.344c3.512-0.074,6.313-0.113,8.401-0.113
			c4.33,0,7.861,0.979,10.595,2.934c3.095,2.203,4.643,5.383,4.643,9.541c0,2.771-0.399,4.984-1.196,6.637
			c-0.798,1.652-2.27,3.256-4.415,4.813c-0.437,0.305-0.655,0.59-0.655,0.855c0-0.02,1.158,2.363,3.474,7.148
			C33.292,226.869,34.45,229.508,34.45,230z M22.488,204.453c0-2.316-0.76-3.92-2.279-4.813c-1.177-0.684-3.019-1.025-5.525-1.025
			c-1.804,0-2.763,0.275-2.876,0.826c-0.114,0.645-0.171,2.506-0.171,5.582c0,0.438,0.009,1.082,0.029,1.938
			c0.019,0.854,0.028,1.49,0.028,1.908c0,0.094,0.304,0.189,0.912,0.285c1.158,0.17,2.373,0.254,3.646,0.254
			C20.409,209.408,22.488,207.758,22.488,204.453z"/>
		<path fill="#999999" d="M63.557,214.822c0,1.916-0.617,3.008-1.851,3.273c-0.209,0.039-2.174,0.248-5.895,0.627
			c-2.241,0.248-5.583,0.541-10.025,0.883c0.266,1.234,1.072,2.176,2.421,2.82c1.101,0.531,2.354,0.797,3.759,0.797
			c1.69,0,3.389-0.455,5.098-1.367c0.721-0.455,1.442-0.912,2.164-1.367c0.399,0.191,1.068,1.158,2.009,2.904
			c0.939,1.748,1.409,2.859,1.409,3.334c0,0.131-0.142,0.35-0.427,0.654c-2.317,2.488-5.915,3.73-10.794,3.73
			c-4.519,0-8.165-1.318-10.937-3.959c-2.849-2.676-4.272-6.254-4.272-10.736c0-4.367,1.271-7.947,3.816-10.738
			c2.62-2.885,6.095-4.328,10.424-4.328c3.646,0,6.74,1.328,9.284,3.986C62.286,207.994,63.557,211.156,63.557,214.822z
			 M53.589,213.084c0-1.178-0.417-2.213-1.253-3.105c-0.836-0.891-1.833-1.338-2.99-1.338c-1.196,0-2.184,0.502-2.962,1.51
			c-0.722,0.932-1.082,2.021-1.082,3.275c0,0.512,0.266,0.768,0.797,0.768c1.405,0,3.589-0.217,6.55-0.654
			C53.276,213.445,53.589,213.293,53.589,213.084z"/>
		<g>
			<path fill="#333333" d="M109.696,219.795c-1.742,4.252-4.267,7.24-7.577,8.961c-3.534,1.816-7.401,1.865-11.601,0.146
				c-0.703-0.287-1.745-0.762-3.127-1.42c-1.382-0.658-2.425-1.131-3.128-1.418c-0.755-0.309-1.267-0.139-1.533,0.51
				c-0.331,0.811-0.744,2.045-1.241,3.709s-0.906,2.893-1.229,3.682c-0.166,0.404-0.434,0.531-0.803,0.381
				c-1.073-0.439-2.667-1.129-4.785-2.068c-2.119-0.939-3.714-1.629-4.785-2.066c-0.51-0.209-0.661-0.568-0.452-1.076
				c0.799-1.953,2.029-4.869,3.689-8.754c1.664-3.885,2.894-6.803,3.691-8.754c2.259-5.516,4.396-11.41,6.411-17.686l0.125-0.379
				c0.102-0.35,0.448-0.443,1.039-0.283c1.443,0.385,4.5,1.535,9.175,3.449c2.758,1.129,5.39,2.246,7.891,3.352
				c4.114,1.828,6.934,4.512,8.46,8.049C111.467,211.76,111.393,215.648,109.696,219.795z M99.006,215.91
				c1.676-4.094,0.52-6.955-3.47-8.59c-2.811-1.15-4.351-1.598-4.622-1.34c-0.216,0.182-1.107,2.184-2.677,6.016
				c-0.222,0.545-0.529,1.357-0.921,2.439c-0.391,1.08-0.698,1.893-0.921,2.436c-0.145,0.354,1.365,1.176,4.528,2.471
				C94.736,220.904,97.431,219.76,99.006,215.91z"/>
			<path fill="#333333" d="M140.687,231.219c-0.532,1.301-1.393,3.227-2.581,5.779c-1.187,2.547-2.047,4.475-2.58,5.773
				c-0.518,1.266-1.25,3.182-2.198,5.748c-0.948,2.564-1.677,4.473-2.189,5.721c-0.193,0.475-0.536,0.684-1.024,0.625
				c-0.741-0.096-2.19-0.588-4.352-1.473c-1.916-0.785-3.229-1.383-3.942-1.797c-0.313-0.189-0.437-0.488-0.374-0.893
				c0.164-0.549,0.326-1.1,0.489-1.646c0.243-0.844,0.286-1.299,0.127-1.363c0.246,0.1-0.887,0.334-3.395,0.701
				c-2.51,0.369-4.592,0.213-6.244-0.463c-4.656-1.906-6.555-5.135-5.697-9.686c0.412-2.111,1.376-5.018,2.894-8.725
				c1.64-4.008,3.26-7.037,4.86-9.09c0.488-0.643,0.996-0.855,1.523-0.639c0.809,0.33,2.035,0.844,3.679,1.537
				c1.645,0.693,2.873,1.205,3.681,1.535c0.544,0.225,0.723,0.564,0.536,1.021c-0.051,0.123-0.144,0.301-0.279,0.531
				c-1.348,2.238-2.524,4.588-3.532,7.049c-1.251,3.057-2.011,5.189-2.277,6.391c-0.475,2.063,0.281,3.502,2.266,4.314
				c0.773,0.316,1.753,0.316,2.938,0.002c1.185-0.314,1.946-0.836,2.284-1.559c0.302-0.635,2.124-5.035,5.469-13.209
				c0.238-0.58,0.422-0.906,0.553-0.975c0.176-0.133,0.529-0.09,1.057,0.125c0.86,0.352,2.153,0.893,3.876,1.617
				c1.724,0.727,3.016,1.268,3.877,1.619c0.527,0.217,0.781,0.471,0.762,0.771C140.87,230.721,140.801,230.939,140.687,231.219z"/>
			<path fill="#333333" d="M159.425,247.693c-0.281,0.686-0.799,0.871-1.555,0.563c-0.334-0.137-0.813-0.355-1.436-0.664
				c-0.624-0.307-1.094-0.523-1.41-0.652c-1.459-0.598-2.544-0.777-3.258-0.537c-0.715,0.242-1.356,1.059-1.924,2.445
				c-0.31,0.756-0.766,1.91-1.369,3.455c-0.604,1.549-1.059,2.701-1.368,3.457c-0.209,0.51-0.485,1.283-0.828,2.322
				c-0.344,1.039-0.617,1.807-0.818,2.297c-0.172,0.422-0.559,0.541-1.161,0.355c-0.872-0.275-2.178-0.77-3.917-1.479
				c-1.67-0.686-2.983-1.285-3.941-1.801c-0.552-0.307-0.723-0.715-0.514-1.227c0.575-1.402,1.446-3.506,2.61-6.301
				s2.036-4.896,2.611-6.301c1.691-4.131,2.704-7.684,3.042-10.666c0.03-0.172,0.066-0.311,0.109-0.418
				c0.107-0.262,0.312-0.385,0.611-0.363c1.01,0.289,2.503,0.676,4.481,1.156c2.999,0.594,4.542,0.906,4.631,0.943
				c0.316,0.129,0.291,0.764-0.074,1.908c-0.365,1.143-0.434,1.76-0.205,1.854c-0.247-0.1,0.664-0.266,2.728-0.5
				c2.064-0.23,3.878-0.027,5.443,0.613c0.983,0.404,1.389,0.816,1.216,1.238c-0.208,0.51-0.557,1.209-1.042,2.096
				c-0.516,0.959-0.874,1.654-1.069,2.086c-0.209,0.51-0.477,1.189-0.805,2.041C159.824,246.666,159.562,247.359,159.425,247.693z"
				/>
		</g>
	</g>
	<g>
		<path fill="#0C7394" d="M188.445,213.715c0,0.436-0.363,0.727-1.089,0.871c-0.522,0.086-1.248,0.102-2.177,0.043
			c-1.306-0.086-1.858-0.131-1.654-0.131c-1.132,0-1.698,0.566-1.698,1.699c0,0.695,0.043,1.748,0.13,3.156
			c0.087,1.408,0.131,2.461,0.131,3.156c0,1.018-0.451,1.525-1.35,1.525c-10.015,0-15.284-0.125-15.807-0.371
			s-0.784-0.559-0.784-0.936c0-0.436,0.181-1.51,0.544-3.223c0.362-1.713,0.544-2.961,0.544-3.744c0-0.959-0.538-1.438-1.611-1.438
			c-1.945,0-4.855,0.059-8.731,0.174c-3.875,0.117-6.786,0.174-8.73,0.174c-2.323,0-3.484-0.914-3.484-2.742
			c0-0.93-0.015-2.314-0.043-4.158c-0.029-1.844-0.043-3.23-0.043-4.16c0-0.869,0.45-1.785,1.35-2.742
			c4.238-4.529,7.33-8.158,9.275-10.887c0.929-1.307,4.078-6.4,9.449-15.283c0.697-1.336,1.829-3.164,3.396-5.486
			c0.406-0.494,0.841-0.74,1.306-0.74c0.697,0,2.852,0.521,6.466,1.566s6.075,1.568,7.381,1.568c0.929,0,1.394,0.596,1.394,1.785
			c0,1.133-0.131,2.838-0.392,5.117s-0.392,3.998-0.392,5.158v18.334c0.551,0,1.509-0.088,2.874-0.262
			c1.219-0.174,2.162-0.262,2.83-0.262c0.551,0,0.828,0.334,0.828,1.002c0,0.609-0.037,1.523-0.109,2.742
			c-0.073,1.221-0.109,2.15-0.109,2.787c0,0.639,0.05,1.59,0.152,2.854C188.394,212.125,188.445,213.076,188.445,213.715z
			 M166.934,186.195c0-0.176-0.102-0.262-0.305-0.262c-0.261,0-0.522,0.189-0.784,0.566c-1.858,2.99-3.716,5.98-5.574,8.969
			c-2.236,3.455-4.413,6.229-6.532,8.318c1.596,0,5.661-0.203,12.192-0.609c0.058-1.162,0.261-4.021,0.61-8.58
			C166.803,191,166.934,188.197,166.934,186.195z"/>
		<path fill="#0C7394" d="M244.139,197.211c0,7.49-2.426,13.92-7.273,19.291c-5.021,5.574-11.248,8.359-18.68,8.359
			s-13.645-2.785-18.637-8.359c-4.877-5.371-7.315-11.801-7.315-19.291c0-7.518,2.438-13.934,7.315-19.246
			c4.993-5.486,11.206-8.23,18.637-8.23s13.645,2.744,18.637,8.23C241.7,183.307,244.139,189.721,244.139,197.211z M227.983,197.211
			c0-2.99-0.871-5.588-2.611-7.795c-1.859-2.352-4.254-3.527-7.186-3.527c-2.99,0-5.4,1.162-7.229,3.484
			c-1.713,2.148-2.568,4.762-2.568,7.838c0,3.02,0.855,5.646,2.568,7.883c1.857,2.408,4.268,3.613,7.229,3.613
			c2.844,0,5.225-1.234,7.141-3.701C227.098,202.742,227.983,200.145,227.983,197.211z"/>
		<path fill="#0C7394" d="M293.823,213.715c0,0.436-0.363,0.727-1.089,0.871c-0.522,0.086-1.248,0.102-2.177,0.043
			c-1.307-0.086-1.858-0.131-1.655-0.131c-1.132,0-1.698,0.566-1.698,1.699c0,0.695,0.044,1.748,0.131,3.156
			s0.131,2.461,0.131,3.156c0,1.018-0.45,1.525-1.35,1.525c-10.016,0-15.284-0.125-15.807-0.371
			c-0.523-0.246-0.784-0.559-0.784-0.936c0-0.436,0.181-1.51,0.544-3.223s0.545-2.961,0.545-3.744c0-0.959-0.538-1.438-1.611-1.438
			c-1.945,0-4.855,0.059-8.73,0.174c-3.876,0.117-6.786,0.174-8.731,0.174c-2.322,0-3.483-0.914-3.483-2.742
			c0-0.93-0.015-2.314-0.043-4.158c-0.029-1.844-0.044-3.23-0.044-4.16c0-0.869,0.45-1.785,1.35-2.742
			c4.238-4.529,7.33-8.158,9.275-10.887c0.929-1.307,4.078-6.4,9.449-15.283c0.696-1.336,1.829-3.164,3.396-5.486
			c0.406-0.494,0.842-0.74,1.307-0.74c0.696,0,2.852,0.521,6.466,1.566s6.074,1.568,7.381,1.568c0.929,0,1.394,0.596,1.394,1.785
			c0,1.133-0.131,2.838-0.392,5.117c-0.262,2.279-0.393,3.998-0.393,5.158v18.334c0.552,0,1.51-0.088,2.874-0.262
			c1.22-0.174,2.162-0.262,2.831-0.262c0.551,0,0.827,0.334,0.827,1.002c0,0.609-0.037,1.523-0.109,2.742
			c-0.072,1.221-0.108,2.15-0.108,2.787c0,0.639,0.05,1.59,0.152,2.854C293.772,212.125,293.823,213.076,293.823,213.715z
			 M272.312,186.195c0-0.176-0.103-0.262-0.305-0.262c-0.262,0-0.523,0.189-0.784,0.566c-1.858,2.99-3.717,5.98-5.574,8.969
			c-2.235,3.455-4.412,6.229-6.531,8.318c1.596,0,5.661-0.203,12.192-0.609c0.058-1.162,0.262-4.021,0.609-8.58
			C272.181,191,272.312,188.197,272.312,186.195z"/>
	</g>
	<g>
		<path fill="#333333" d="M222.162,134.811c-5.483,2.834-11.398,5.668-16.389,8.01L203,135.674c1.849-0.617,4.005-1.479,6.47-2.402
			v-16.945h-5.299v-6.963h5.299V95.994h6.839v13.369h5.052v6.963h-5.052v14.109l4.313-1.848L222.162,134.811z M260.671,136.475
			c-2.711,2.156-5.915,4.252-8.811,5.977c2.588,1.602,5.545,2.773,8.996,3.512c-1.541,1.295-3.45,4.066-4.375,5.916
			c-8.256-2.527-13.863-7.58-17.314-14.727c-1.417,0.801-2.958,1.602-4.498,2.402v5.053l6.963-2.033
			c-0.062,1.664,0,4.129,0.123,5.545c-9.858,3.205-11.707,3.883-12.754,4.684c-0.431-1.418-1.787-4.066-2.772-5.238
			c1.047-0.738,2.095-2.156,2.095-4.867v-0.678c-1.849,0.617-3.82,1.232-5.854,1.787c-0.678-1.602-2.464-4.066-3.82-5.236
			c8.934-1.787,15.527-4.438,19.224-7.457l7.086,1.727c-0.37,0.307-0.74,0.615-1.109,0.924c0.924,1.848,2.157,3.574,3.574,5.053
			c2.526-1.727,5.361-3.883,7.456-5.73c-2.649-1.047-6.408-2.402-9.242-3.266l2.28-3.635c3.512,0.924,8.441,2.402,11.091,3.512
			l-2.095,3.697L260.671,136.475z M260.055,104.559h-38.509v-5.67h15.527c-0.247-0.984-0.555-1.971-0.924-2.834l7.332-1.232
			c0.555,1.172,1.171,2.711,1.541,4.066h15.034V104.559z M222.224,130.189c3.081-0.861,7.271-2.094,11.645-3.574
			c-2.649-0.924-7.394-2.34-10.967-3.203l1.725-3.697c3.574,0.678,8.564,1.973,11.275,2.834l-1.664,3.943l1.047-0.307l0.801,4.436
			c-4.128,1.418-8.38,2.957-12.138,4.129L222.224,130.189z M245.884,122.242c2.896-0.432,7.887-2.033,10.844-2.896h-32.656v-12.631
			h34.012v12.631h-1.171l1.479,4.559c-3.574,1.049-8.318,1.787-11.584,2.033L245.884,122.242z M233.93,111.027h-3.512v4.006h3.512
			V111.027z M237.319,131.053v-10.414h6.654v10.414H237.319z M242.618,111.027h-3.574v4.006h3.574V111.027z M251.491,111.027h-3.759
			v4.006h3.759V111.027z"/>
	</g>
	<g>
		<path fill="#999999" d="M290.667,132.429c-2.283,2.432-5.434,5.062-8.535,6.897v9.577c0,1.687-0.397,2.48-1.613,2.928
			c-1.241,0.446-3.002,0.521-5.384,0.496c-0.149-0.868-0.72-2.184-1.191-2.978c1.761,0.074,3.796,0.05,4.342,0.05
			s0.744-0.149,0.744-0.571v-10.991c1.935-1.017,4.069-2.604,5.707-4.068h-14.316v-2.903h17.219l0.645-0.173L290.667,132.429z"/>
	</g>
	<g>
		<path fill="#999999" d="M176.916,111.697h-4.813v1.984h-2.605V96.885h7.418V111.697z M172.103,99.714v9.105h2.158v-9.105H172.103z
			 M191.828,99.242h-1.663v15.135c0,1.712-0.372,2.506-1.414,2.952c-1.067,0.496-2.655,0.57-4.913,0.546
			c-0.124-0.844-0.571-2.158-0.992-3.002c1.513,0.05,3.176,0.074,3.672,0.05c0.471-0.025,0.645-0.149,0.645-0.596V99.242h-9.651
			v-2.903h14.316V99.242z M180.712,111.002v1.464h-2.457v-11.09h7.22v9.626H180.712z M180.712,103.956v4.491h2.307v-4.491H180.712z"
			/>
		<path fill="#999999" d="M176.916,141.479h-4.813v1.984h-2.605v-16.797h7.418V141.479z M172.103,129.496v9.105h2.158v-9.105
			H172.103z M191.828,129.024h-1.663v15.135c0,1.712-0.372,2.506-1.414,2.952c-1.067,0.496-2.655,0.57-4.913,0.546
			c-0.124-0.844-0.571-2.158-0.992-3.002c1.513,0.05,3.176,0.074,3.672,0.05c0.471-0.025,0.645-0.149,0.645-0.596v-15.085h-9.651
			v-2.903h14.316V129.024z M180.712,140.784v1.464h-2.457v-11.09h7.22v9.626H180.712z M180.712,133.738v4.491h2.307v-4.491H180.712z
			"/>
	</g>
</g>
</svg>
